# Made in Blockbench 4.5.2
mtllib air_compressor_off - Converted.mtl

o cube
v 1 0.0625 1
v 1 0.0625 0
v 1 0 1
v 1 0 0
v 0 0.0625 0
v 0 0.0625 1
v 0 0 0
v 0 0 1
vt 0.234375 0.75
vt 0.234375 1
vt 0.25 1
vt 0.25 0.75
vt 0 0.765625
vt 0.25 0.765625
vt 0.25 0.75
vt 0 0.75
vt 0.015625 1
vt 0.015625 0.75
vt 0 0.75
vt 0 1
vt 0.25 0.984375
vt 0 0.984375
vt 0 1
vt 0.25 1
vt 0.25 1
vt 0.25 0.75
vt 0 0.75
vt 0 1
vt 0 1
vt 0 0.75
vt 0.25 0.75
vt 0.25 1
vn 0 0 -1
vn 1 0 0
vn 0 0 1
vn -1 0 0
vn 0 1 0
vn 0 -1 0
usemtl m_2c0716ad-560c-a794-8d2d-2f2a718e1137
f 4/4/1 7/3/1 5/2/1 2/1/1
f 3/8/2 4/7/2 2/6/2 1/5/2
f 8/12/3 3/11/3 1/10/3 6/9/3
f 7/16/4 8/15/4 6/14/4 5/13/4
f 6/20/5 1/19/5 2/18/5 5/17/5
f 7/24/6 4/23/6 3/22/6 8/21/6
o cube
v 0.9375 0.6875 1
v 0.9375 0.6875 0
v 0.9375 0.0625 1
v 0.9375 0.0625 0
v 0.3125 0.6875 0
v 0.3125 0.6875 1
v 0.3125 0.0625 0
v 0.3125 0.0625 1
vt 0.25 0.75
vt 0.40625 0.75
vt 0.40625 0.59375
vt 0.25 0.59375
vt 0 0.59375
vt 0.25 0.59375
vt 0.25 0.4375
vt 0 0.4375
vt 0.25 0.59375
vt 0.40625 0.59375
vt 0.40625 0.4375
vt 0.25 0.4375
vt 0 0.75
vt 0.25 0.75
vt 0.25 0.59375
vt 0 0.59375
vt 0.25 0.4375
vt 0.25 0.28125
vt 0 0.28125
vt 0 0.4375
vn 0 0 -1
vn 1 0 0
vn 0 0 1
vn -1 0 0
vn 0 1 0
usemtl m_2c0716ad-560c-a794-8d2d-2f2a718e1137
f 12/28/7 15/27/7 13/26/7 10/25/7
f 11/32/8 12/31/8 10/30/8 9/29/8
f 16/36/9 11/35/9 9/34/9 14/33/9
f 15/40/10 16/39/10 14/38/10 13/37/10
f 14/44/11 9/43/11 10/42/11 13/41/11
o cube
v 0.3125 0.875 0.9375
v 0.3125 0.875 0.3125
v 0.3125 0.0625 0.9375
v 0.3125 0.0625 0.3125
v 0.0625 0.875 0.3125
v 0.0625 0.875 0.9375
v 0.0625 0.0625 0.3125
v 0.0625 0.0625 0.9375
vt 0.78125 1
vt 0.84375 1
vt 0.84375 0.796875
vt 0.78125 0.796875
vt 0.84375 1
vt 1 1
vt 1 0.796875
vt 0.84375 0.796875
vt 0.71875 1
vt 0.78125 1
vt 0.78125 0.796875
vt 0.71875 0.796875
vt 0.84375 1
vt 1 1
vt 1 0.796875
vt 0.84375 0.796875
vt 1 0.796875
vt 1 0.734375
vt 0.84375 0.734375
vt 0.84375 0.796875
vn 0 0 -1
vn 1 0 0
vn 0 0 1
vn -1 0 0
vn 0 1 0
usemtl m_2c0716ad-560c-a794-8d2d-2f2a718e1137
f 20/48/12 23/47/12 21/46/12 18/45/12
f 19/52/13 20/51/13 18/50/13 17/49/13
f 24/56/14 19/55/14 17/54/14 22/53/14
f 23/60/15 24/59/15 22/58/15 21/57/15
f 22/64/16 17/63/16 18/62/16 21/61/16
o cube
v 1 0.75 0.75
v 1 0.75 0.25
v 1 0.0625 0.75
v 1 0.0625 0.25
v 0.9375 0.75 0.25
v 0.9375 0.75 0.75
v 0.9375 0.0625 0.25
v 0.9375 0.0625 0.75
vt 0.359375 1
vt 0.375 1
vt 0.375 0.828125
vt 0.359375 0.828125
vt 0.25 1
vt 0.375 1
vt 0.375 0.828125
vt 0.25 0.828125
vt 0.25 1
vt 0.265625 1
vt 0.265625 0.828125
vt 0.25 0.828125
vt 0.375 1
vt 0.375 0.984375
vt 0.25 0.984375
vt 0.25 1
vn 0 0 -1
vn 1 0 0
vn 0 0 1
vn 0 1 0
usemtl m_2c0716ad-560c-a794-8d2d-2f2a718e1137
f 28/68/17 31/67/17 29/66/17 26/65/17
f 27/72/18 28/71/18 26/70/18 25/69/18
f 32/76/19 27/75/19 25/74/19 30/73/19
f 30/80/20 25/79/20 26/78/20 29/77/20
o cube
v 0.1875 0.4375 0.3125
v 0.1875 0.4375 0.125
v 0.1875 0.375 0.3125
v 0.1875 0.375 0.125
v 0.125 0.4375 0.125
v 0.125 0.4375 0.3125
v 0.125 0.375 0.125
v 0.125 0.375 0.3125
vt 0.09375 0.125
vt 0.109375 0.125
vt 0.109375 0.109375
vt 0.09375 0.109375
vt 0.0625 0.125
vt 0.109375 0.125
vt 0.109375 0.109375
vt 0.0625 0.109375
vt 0.109375 0.109375
vt 0.0625 0.109375
vt 0.0625 0.125
vt 0.109375 0.125
vt 0.109375 0.125
vt 0.109375 0.109375
vt 0.0625 0.109375
vt 0.0625 0.125
vt 0.0625 0.109375
vt 0.0625 0.125
vt 0.109375 0.125
vt 0.109375 0.109375
vn 0 0 -1
vn 1 0 0
vn -1 0 0
vn 0 1 0
vn 0 -1 0
usemtl m_2c0716ad-560c-a794-8d2d-2f2a718e1137
f 36/84/21 39/83/21 37/82/21 34/81/21
f 35/88/22 36/87/22 34/86/22 33/85/22
f 39/92/23 40/91/23 38/90/23 37/89/23
f 38/96/24 33/95/24 34/94/24 37/93/24
f 39/100/25 36/99/25 35/98/25 40/97/25
o cube
v 0.3125 0.4375 0.1875
v 0.3125 0.4375 0.125
v 0.3125 0.375 0.1875
v 0.3125 0.375 0.125
v 0.1875 0.4375 0.125
v 0.1875 0.4375 0.1875
v 0.1875 0.375 0.125
v 0.1875 0.375 0.1875
vt 0.109375 0.09375
vt 0.109375 0.125
vt 0.125 0.125
vt 0.125 0.09375
vt 0.125 0.125
vt 0.125 0.09375
vt 0.109375 0.09375
vt 0.109375 0.125
vt 0.125 0.125
vt 0.125 0.09375
vt 0.109375 0.09375
vt 0.109375 0.125
vt 0.125 0.125
vt 0.125 0.09375
vt 0.109375 0.09375
vt 0.109375 0.125
vn 0 0 -1
vn 0 0 1
vn 0 1 0
vn 0 -1 0
usemtl m_2c0716ad-560c-a794-8d2d-2f2a718e1137
f 44/104/26 47/103/26 45/102/26 42/101/26
f 48/108/27 43/107/27 41/106/27 46/105/27
f 46/112/28 41/111/28 42/110/28 45/109/28
f 47/116/29 44/115/29 43/114/29 48/113/29
o cube
v 0.21875 0.46875 0.359375
v 0.21875 0.46875 0.296875
v 0.21875 0.34375 0.359375
v 0.21875 0.34375 0.296875
v 0.09375 0.46875 0.296875
v 0.09375 0.46875 0.359375
v 0.09375 0.34375 0.296875
v 0.09375 0.34375 0.359375
vt 0 0.125
vt 0.0625 0.125
vt 0.0625 0.0625
vt 0 0.0625
vt 0 0.125
vt 0.015625 0.125
vt 0.015625 0.0625
vt 0 0.0625
vt 0.046875 0.125
vt 0.0625 0.125
vt 0.0625 0.0625
vt 0.046875 0.0625
vt 0.0625 0.109375
vt 0 0.109375
vt 0 0.125
vt 0.0625 0.125
vt 0.0625 0.0625
vt 0 0.0625
vt 0 0.078125
vt 0.0625 0.078125
vn 0 0 -1
vn 1 0 0
vn -1 0 0
vn 0 1 0
vn 0 -1 0
usemtl m_2c0716ad-560c-a794-8d2d-2f2a718e1137
f 52/120/30 55/119/30 53/118/30 50/117/30
f 51/124/31 52/123/31 50/122/31 49/121/31
f 55/128/32 56/127/32 54/126/32 53/125/32
f 54/132/33 49/131/33 50/130/33 53/129/33
f 55/136/34 52/135/34 51/134/34 56/133/34
o cube
v 0.359375 0.46875 0.21875
v 0.359375 0.46875 0.09375
v 0.359375 0.34375 0.21875
v 0.359375 0.34375 0.09375
v 0.296875 0.46875 0.09375
v 0.296875 0.46875 0.21875
v 0.296875 0.34375 0.09375
v 0.296875 0.34375 0.21875
vt 0 0.125
vt 0.015625 0.125
vt 0.015625 0.0625
vt 0 0.0625
vt 0.046875 0.125
vt 0.0625 0.125
vt 0.0625 0.0625
vt 0.046875 0.0625
vt 0 0.125
vt 0.0625 0.125
vt 0.0625 0.0625
vt 0 0.0625
vt 0 0.109375
vt 0 0.125
vt 0.0625 0.125
vt 0.0625 0.109375
vt 0.0625 0.078125
vt 0.0625 0.0625
vt 0 0.0625
vt 0 0.078125
vn 0 0 -1
vn 0 0 1
vn -1 0 0
vn 0 1 0
vn 0 -1 0
usemtl m_2c0716ad-560c-a794-8d2d-2f2a718e1137
f 60/140/35 63/139/35 61/138/35 58/137/35
f 64/144/36 59/143/36 57/142/36 62/141/36
f 63/148/37 64/147/37 62/146/37 61/145/37
f 62/152/38 57/151/38 58/150/38 61/149/38
f 63/156/39 60/155/39 59/154/39 64/153/39
o cube
v 0.1875 0.25 0.3125
v 0.1875 0.25 0.125
v 0.1875 0.1875 0.3125
v 0.1875 0.1875 0.125
v 0.125 0.25 0.125
v 0.125 0.25 0.3125
v 0.125 0.1875 0.125
v 0.125 0.1875 0.3125
vt 0.09375 0.09375
vt 0.109375 0.09375
vt 0.109375 0.078125
vt 0.09375 0.078125
vt 0.0625 0.09375
vt 0.109375 0.09375
vt 0.109375 0.078125
vt 0.0625 0.078125
vt 0.109375 0.078125
vt 0.0625 0.078125
vt 0.0625 0.09375
vt 0.109375 0.09375
vt 0.109375 0.09375
vt 0.109375 0.078125
vt 0.0625 0.078125
vt 0.0625 0.09375
vt 0.0625 0.078125
vt 0.0625 0.09375
vt 0.109375 0.09375
vt 0.109375 0.078125
vn 0 0 -1
vn 1 0 0
vn -1 0 0
vn 0 1 0
vn 0 -1 0
usemtl m_2c0716ad-560c-a794-8d2d-2f2a718e1137
f 68/160/40 71/159/40 69/158/40 66/157/40
f 67/164/41 68/163/41 66/162/41 65/161/41
f 71/168/42 72/167/42 70/166/42 69/165/42
f 70/172/43 65/171/43 66/170/43 69/169/43
f 71/176/44 68/175/44 67/174/44 72/173/44
o cube
v 0.3125 0.25 0.1875
v 0.3125 0.25 0.125
v 0.3125 0.1875 0.1875
v 0.3125 0.1875 0.125
v 0.1875 0.25 0.125
v 0.1875 0.25 0.1875
v 0.1875 0.1875 0.125
v 0.1875 0.1875 0.1875
vt 0.109375 0.0625
vt 0.109375 0.09375
vt 0.125 0.09375
vt 0.125 0.0625
vt 0.125 0.09375
vt 0.125 0.0625
vt 0.109375 0.0625
vt 0.109375 0.09375
vt 0.125 0.09375
vt 0.125 0.0625
vt 0.109375 0.0625
vt 0.109375 0.09375
vt 0.125 0.09375
vt 0.125 0.0625
vt 0.109375 0.0625
vt 0.109375 0.09375
vn 0 0 -1
vn 0 0 1
vn 0 1 0
vn 0 -1 0
usemtl m_2c0716ad-560c-a794-8d2d-2f2a718e1137
f 76/180/45 79/179/45 77/178/45 74/177/45
f 80/184/46 75/183/46 73/182/46 78/181/46
f 78/188/47 73/187/47 74/186/47 77/185/47
f 79/192/48 76/191/48 75/190/48 80/189/48
o cube
v 0.21875 0.28125 0.359375
v 0.21875 0.28125 0.296875
v 0.21875 0.15625 0.359375
v 0.21875 0.15625 0.296875
v 0.09375 0.28125 0.296875
v 0.09375 0.28125 0.359375
v 0.09375 0.15625 0.296875
v 0.09375 0.15625 0.359375
vt 0 0.125
vt 0.0625 0.125
vt 0.0625 0.0625
vt 0 0.0625
vt 0 0.125
vt 0.015625 0.125
vt 0.015625 0.0625
vt 0 0.0625
vt 0.046875 0.125
vt 0.0625 0.125
vt 0.0625 0.0625
vt 0.046875 0.0625
vt 0.0625 0.109375
vt 0 0.109375
vt 0 0.125
vt 0.0625 0.125
vt 0.0625 0.0625
vt 0 0.0625
vt 0 0.078125
vt 0.0625 0.078125
vn 0 0 -1
vn 1 0 0
vn -1 0 0
vn 0 1 0
vn 0 -1 0
usemtl m_2c0716ad-560c-a794-8d2d-2f2a718e1137
f 84/196/49 87/195/49 85/194/49 82/193/49
f 83/200/50 84/199/50 82/198/50 81/197/50
f 87/204/51 88/203/51 86/202/51 85/201/51
f 86/208/52 81/207/52 82/206/52 85/205/52
f 87/212/53 84/211/53 83/210/53 88/209/53
o cube
v 0.359375 0.28125 0.21875
v 0.359375 0.28125 0.09375
v 0.359375 0.15625 0.21875
v 0.359375 0.15625 0.09375
v 0.296875 0.28125 0.09375
v 0.296875 0.28125 0.21875
v 0.296875 0.15625 0.09375
v 0.296875 0.15625 0.21875
vt 0 0.125
vt 0.015625 0.125
vt 0.015625 0.0625
vt 0 0.0625
vt 0.046875 0.125
vt 0.0625 0.125
vt 0.0625 0.0625
vt 0.046875 0.0625
vt 0 0.125
vt 0.0625 0.125
vt 0.0625 0.0625
vt 0 0.0625
vt 0 0.109375
vt 0 0.125
vt 0.0625 0.125
vt 0.0625 0.109375
vt 0.0625 0.078125
vt 0.0625 0.0625
vt 0 0.0625
vt 0 0.078125
vn 0 0 -1
vn 0 0 1
vn -1 0 0
vn 0 1 0
vn 0 -1 0
usemtl m_2c0716ad-560c-a794-8d2d-2f2a718e1137
f 92/216/54 95/215/54 93/214/54 90/213/54
f 96/220/55 91/219/55 89/218/55 94/217/55
f 95/224/56 96/223/56 94/222/56 93/221/56
f 94/228/57 89/227/57 90/226/57 93/225/57
f 95/232/58 92/231/58 91/230/58 96/229/58
o cube
v 0.875 1 1
v 0.875 1 0
v 0.875 0.6875 1
v 0.875 0.6875 0
v 0.375 1 0
v 0.375 1 1
v 0.375 0.6875 0
v 0.375 0.6875 1
vt 0.5 0.28125
vt 0.625 0.28125
vt 0.625 0.203125
vt 0.5 0.203125
vt 0.25 0.203125
vt 0.5 0.203125
vt 0.5 0.125
vt 0.25 0.125
vt 0.5 0.203125
vt 0.625 0.203125
vt 0.625 0.125
vt 0.5 0.125
vt 0.25 0.28125
vt 0.5 0.28125
vt 0.5 0.203125
vt 0.25 0.203125
vt 0.25 0.28125
vt 0.25 0.15625
vt 0 0.15625
vt 0 0.28125
vn 0 0 -1
vn 1 0 0
vn 0 0 1
vn -1 0 0
vn 0 1 0
usemtl m_2c0716ad-560c-a794-8d2d-2f2a718e1137
f 100/236/59 103/235/59 101/234/59 98/233/59
f 99/240/60 100/239/60 98/238/60 97/237/60
f 104/244/61 99/243/61 97/242/61 102/241/61
f 103/248/62 104/247/62 102/246/62 101/245/62
f 102/252/63 97/251/63 98/250/63 101/249/63
o cube
v 0.375 0.78125 0.1875
v 0.375 0.78125 0.125
v 0.375 0.71875 0.1875
v 0.375 0.71875 0.125
v 0.1875 0.78125 0.125
v 0.1875 0.78125 0.1875
v 0.1875 0.71875 0.125
v 0.1875 0.71875 0.1875
vt 0.046875 0.125
vt 0 0.125
vt 0 0.140625
vt 0.046875 0.140625
vt 0 0.140625
vt 0.046875 0.140625
vt 0.046875 0.125
vt 0 0.125
vt 0 0.140625
vt 0.046875 0.140625
vt 0.046875 0.125
vt 0 0.125
vt 0 0.140625
vt 0.046875 0.140625
vt 0.046875 0.125
vt 0 0.125
vn 0 0 -1
vn 0 0 1
vn 0 1 0
vn 0 -1 0
usemtl m_2c0716ad-560c-a794-8d2d-2f2a718e1137
f 108/256/64 111/255/64 109/254/64 106/253/64
f 112/260/65 107/259/65 105/258/65 110/257/65
f 110/264/66 105/263/66 106/262/66 109/261/66
f 111/268/67 108/267/67 107/266/67 112/265/67
o cube
v 0.1875 0.78125 0.3125
v 0.1875 0.78125 0.125
v 0.1875 0.71875 0.3125
v 0.1875 0.71875 0.125
v 0.125 0.78125 0.125
v 0.125 0.78125 0.3125
v 0.125 0.71875 0.125
v 0.125 0.71875 0.3125
vt 0.09375 0.125
vt 0.109375 0.125
vt 0.109375 0.109375
vt 0.09375 0.109375
vt 0 0.15625
vt 0.046875 0.15625
vt 0.046875 0.140625
vt 0 0.140625
vt 0.046875 0.140625
vt 0 0.140625
vt 0 0.15625
vt 0.046875 0.15625
vt 0.046875 0.15625
vt 0.046875 0.140625
vt 0 0.140625
vt 0 0.15625
vt 0 0.140625
vt 0 0.15625
vt 0.046875 0.15625
vt 0.046875 0.140625
vn 0 0 -1
vn 1 0 0
vn -1 0 0
vn 0 1 0
vn 0 -1 0
usemtl m_2c0716ad-560c-a794-8d2d-2f2a718e1137
f 116/272/68 119/271/68 117/270/68 114/269/68
f 115/276/69 116/275/69 114/274/69 113/273/69
f 119/280/70 120/279/70 118/278/70 117/277/70
f 118/284/71 113/283/71 114/282/71 117/281/71
f 119/288/72 116/287/72 115/286/72 120/285/72
o cube
v 0.21875 0.8125 0.359375
v 0.21875 0.8125 0.296875
v 0.21875 0.6875 0.359375
v 0.21875 0.6875 0.296875
v 0.09375 0.8125 0.296875
v 0.09375 0.8125 0.359375
v 0.09375 0.6875 0.296875
v 0.09375 0.6875 0.359375
vt 0 0.125
vt 0.0625 0.125
vt 0.0625 0.0625
vt 0 0.0625
vt 0 0.125
vt 0.015625 0.125
vt 0.015625 0.0625
vt 0 0.0625
vt 0.046875 0.125
vt 0.0625 0.125
vt 0.0625 0.0625
vt 0.046875 0.0625
vt 0.0625 0.109375
vt 0 0.109375
vt 0 0.125
vt 0.0625 0.125
vt 0.0625 0.0625
vt 0 0.0625
vt 0 0.078125
vt 0.0625 0.078125
vn 0 0 -1
vn 1 0 0
vn -1 0 0
vn 0 1 0
vn 0 -1 0
usemtl m_2c0716ad-560c-a794-8d2d-2f2a718e1137
f 124/292/73 127/291/73 125/290/73 122/289/73
f 123/296/74 124/295/74 122/294/74 121/293/74
f 127/300/75 128/299/75 126/298/75 125/297/75
f 126/304/76 121/303/76 122/302/76 125/301/76
f 127/308/77 124/307/77 123/306/77 128/305/77
o cube
v 0.9375 0.75 0.75
v 0.9375 0.75 0.25
v 0.9375 0.6875 0.75
v 0.9375 0.6875 0.25
v 0.875 0.75 0.25
v 0.875 0.75 0.75
v 0.875 0.6875 0.25
v 0.875 0.6875 0.75
vt 0.15625 0.15625
vt 0.171875 0.15625
vt 0.171875 0.140625
vt 0.15625 0.140625
vt 0.046875 0.15625
vt 0.0625 0.15625
vt 0.0625 0.140625
vt 0.046875 0.140625
vt 0.171875 0.15625
vt 0.171875 0.140625
vt 0.046875 0.140625
vt 0.046875 0.15625
vn 0 0 -1
vn 0 0 1
vn 0 1 0
usemtl m_2c0716ad-560c-a794-8d2d-2f2a718e1137
f 132/312/78 135/311/78 133/310/78 130/309/78
f 136/316/79 131/315/79 129/314/79 134/313/79
f 134/320/80 129/319/80 130/318/80 133/317/80
o cube
v 0.375 0.8125 0.96875
v 0.375 0.8125 0.90625
v 0.375 0.75 0.96875
v 0.375 0.75 0.90625
v 0.1875 0.8125 0.90625
v 0.1875 0.8125 0.96875
v 0.1875 0.75 0.90625
v 0.1875 0.75 0.96875
vt 0.125 0.078125
vt 0.125 0.125
vt 0.140625 0.125
vt 0.140625 0.078125
vt 0.140625 0.125
vt 0.140625 0.078125
vt 0.125 0.078125
vt 0.125 0.125
vt 0.125 0.125
vt 0.140625 0.125
vt 0.140625 0.109375
vt 0.125 0.109375
vt 0.140625 0.125
vt 0.140625 0.078125
vt 0.125 0.078125
vt 0.125 0.125
vt 0.140625 0.125
vt 0.140625 0.078125
vt 0.125 0.078125
vt 0.125 0.125
vn 0 0 -1
vn 0 0 1
vn -1 0 0
vn 0 1 0
vn 0 -1 0
usemtl m_2c0716ad-560c-a794-8d2d-2f2a718e1137
f 140/324/81 143/323/81 141/322/81 138/321/81
f 144/328/82 139/327/82 137/326/82 142/325/82
f 143/332/83 144/331/83 142/330/83 141/329/83
f 142/336/84 137/335/84 138/334/84 141/333/84
f 143/340/85 140/339/85 139/338/85 144/337/85
o cube
v 0.375 0.8125 0.875
v 0.375 0.8125 0.8125
v 0.375 0.75 0.875
v 0.375 0.75 0.8125
v 0.3125 0.8125 0.8125
v 0.3125 0.8125 0.875
v 0.3125 0.75 0.8125
v 0.3125 0.75 0.875
vt 0.15625 0.125
vt 0.15625 0.109375
vt 0.140625 0.109375
vt 0.140625 0.125
vt 0.15625 0.125
vt 0.15625 0.109375
vt 0.140625 0.109375
vt 0.140625 0.125
vt 0.15625 0.109375
vt 0.140625 0.109375
vt 0.140625 0.125
vt 0.15625 0.125
vt 0.140625 0.125
vt 0.15625 0.125
vt 0.15625 0.109375
vt 0.140625 0.109375
vn 0 0 -1
vn 0 0 1
vn 0 1 0
vn 0 -1 0
usemtl m_2c0716ad-560c-a794-8d2d-2f2a718e1137
f 148/344/86 151/343/86 149/342/86 146/341/86
f 152/348/87 147/347/87 145/346/87 150/345/87
f 150/352/88 145/351/88 146/350/88 149/349/88
f 151/356/89 148/355/89 147/354/89 152/353/89
o cube
v 0.375 0.8125 0.78125
v 0.375 0.8125 0.71875
v 0.375 0.75 0.78125
v 0.375 0.75 0.71875
v 0.3125 0.8125 0.71875
v 0.3125 0.8125 0.78125
v 0.3125 0.75 0.71875
v 0.3125 0.75 0.78125
vt 0.15625 0.125
vt 0.15625 0.109375
vt 0.140625 0.109375
vt 0.140625 0.125
vt 0.15625 0.125
vt 0.15625 0.109375
vt 0.140625 0.109375
vt 0.140625 0.125
vt 0.15625 0.109375
vt 0.140625 0.109375
vt 0.140625 0.125
vt 0.15625 0.125
vt 0.140625 0.125
vt 0.15625 0.125
vt 0.15625 0.109375
vt 0.140625 0.109375
vn 0 0 -1
vn 0 0 1
vn 0 1 0
vn 0 -1 0
usemtl m_2c0716ad-560c-a794-8d2d-2f2a718e1137
f 156/360/90 159/359/90 157/358/90 154/357/90
f 160/364/91 155/363/91 153/362/91 158/361/91
f 158/368/92 153/367/92 154/366/92 157/365/92
f 159/372/93 156/371/93 155/370/93 160/369/93
o cube
v 0.421875 0.8125 0.21875
v 0.421875 0.8125 0.09375
v 0.421875 0.6875 0.21875
v 0.421875 0.6875 0.09375
v 0.359375 0.8125 0.09375
v 0.359375 0.8125 0.21875
v 0.359375 0.6875 0.09375
v 0.359375 0.6875 0.21875
vt 0 0.125
vt 0.015625 0.125
vt 0.015625 0.0625
vt 0 0.0625
vt 0.046875 0.125
vt 0.0625 0.125
vt 0.0625 0.0625
vt 0.046875 0.0625
vt 0 0.125
vt 0.0625 0.125
vt 0.0625 0.0625
vt 0 0.0625
vt 0 0.109375
vt 0 0.125
vt 0.0625 0.125
vt 0.0625 0.109375
vn 0 0 -1
vn 0 0 1
vn -1 0 0
vn 0 1 0
usemtl m_2c0716ad-560c-a794-8d2d-2f2a718e1137
f 164/376/94 167/375/94 165/374/94 162/373/94
f 168/380/95 163/379/95 161/378/95 166/377/95
f 167/384/96 168/383/96 166/382/96 165/381/96
f 166/388/97 161/387/97 162/386/97 165/385/97