# Made in Blockbench 4.5.2
mtllib liquid_compressor - Converted.mtl

o cube
v 0.78125 0.46875 0.234375
v 0.78125 0.46875 0.171875
v 0.78125 0.34375 0.234375
v 0.78125 0.34375 0.171875
v 0.65625 0.46875 0.171875
v 0.65625 0.46875 0.234375
v 0.65625 0.34375 0.171875
v 0.65625 0.34375 0.234375
vt 0.921875 0.96875
vt 0.984375 0.96875
vt 0.984375 0.90625
vt 0.921875 0.90625
vt 0.921875 0.96875
vt 0.9375 0.96875
vt 0.9375 0.90625
vt 0.921875 0.90625
vt 0.96875 0.96875
vt 0.984375 0.96875
vt 0.984375 0.90625
vt 0.96875 0.90625
vt 0.984375 0.953125
vt 0.921875 0.953125
vt 0.921875 0.96875
vt 0.984375 0.96875
vt 0.984375 0.90625
vt 0.921875 0.90625
vt 0.921875 0.921875
vt 0.984375 0.921875
vn 0 0 -1
vn 1 0 0
vn -1 0 0
vn 0 1 0
vn 0 -1 0
usemtl m_d8364299-315a-d598-abbc-40e686084cf3
f 4/4/1 7/3/1 5/2/1 2/1/1
f 3/8/2 4/7/2 2/6/2 1/5/2
f 7/12/3 8/11/3 6/10/3 5/9/3
f 6/16/4 1/15/4 2/14/4 5/13/4
f 7/20/5 4/19/5 3/18/5 8/17/5
o cube
v 0.59375 0.34375 0.234375
v 0.59375 0.34375 0.171875
v 0.59375 0.21875 0.234375
v 0.59375 0.21875 0.171875
v 0.46875 0.34375 0.171875
v 0.46875 0.34375 0.234375
v 0.46875 0.21875 0.171875
v 0.46875 0.21875 0.234375
vt 0.984375 0.96875
vt 0.921875 0.96875
vt 0.921875 0.90625
vt 0.984375 0.90625
vt 0.984375 0.96875
vt 0.96875 0.96875
vt 0.96875 0.90625
vt 0.984375 0.90625
vt 0.9375 0.96875
vt 0.921875 0.96875
vt 0.921875 0.90625
vt 0.9375 0.90625
vt 0.921875 0.953125
vt 0.984375 0.953125
vt 0.984375 0.96875
vt 0.921875 0.96875
vt 0.921875 0.90625
vt 0.984375 0.90625
vt 0.984375 0.921875
vt 0.921875 0.921875
vn 0 0 -1
vn 1 0 0
vn -1 0 0
vn 0 1 0
vn 0 -1 0
usemtl m_d8364299-315a-d598-abbc-40e686084cf3
f 12/24/6 15/23/6 13/22/6 10/21/6
f 11/28/7 12/27/7 10/26/7 9/25/7
f 15/32/8 16/31/8 14/30/8 13/29/8
f 14/36/9 9/35/9 10/34/9 13/33/9
f 15/40/10 12/39/10 11/38/10 16/37/10
o cube
v 0.78125 0.671875 0.15625
v 0.78125 0.671875 0.03125
v 0.78125 0.609375 0.15625
v 0.78125 0.609375 0.03125
v 0.65625 0.671875 0.03125
v 0.65625 0.671875 0.15625
v 0.65625 0.609375 0.03125
v 0.65625 0.609375 0.15625
vt 0.921875 0.96875
vt 0.921875 0.90625
vt 0.9375 0.90625
vt 0.9375 0.96875
vt 0.984375 0.96875
vt 0.921875 0.96875
vt 0.921875 0.953125
vt 0.984375 0.953125
vt 0.984375 0.90625
vt 0.984375 0.96875
vt 0.96875 0.96875
vt 0.96875 0.90625
vt 0.921875 0.90625
vt 0.984375 0.90625
vt 0.984375 0.921875
vt 0.921875 0.921875
vt 0.984375 0.90625
vt 0.984375 0.96875
vt 0.921875 0.96875
vt 0.921875 0.90625
vn 0 0 -1
vn 1 0 0
vn 0 0 1
vn -1 0 0
vn 0 -1 0
usemtl m_d8364299-315a-d598-abbc-40e686084cf3
f 20/44/11 23/43/11 21/42/11 18/41/11
f 19/48/12 20/47/12 18/46/12 17/45/12
f 24/52/13 19/51/13 17/50/13 22/49/13
f 23/56/14 24/55/14 22/54/14 21/53/14
f 23/60/15 20/59/15 19/58/15 24/57/15
o cube
v 0.59375 0.671875 0.15625
v 0.59375 0.671875 0.03125
v 0.59375 0.609375 0.15625
v 0.59375 0.609375 0.03125
v 0.46875 0.671875 0.03125
v 0.46875 0.671875 0.15625
v 0.46875 0.609375 0.03125
v 0.46875 0.609375 0.15625
vt 0.984375 0.96875
vt 0.984375 0.90625
vt 0.96875 0.90625
vt 0.96875 0.96875
vt 0.921875 0.96875
vt 0.984375 0.96875
vt 0.984375 0.953125
vt 0.921875 0.953125
vt 0.921875 0.90625
vt 0.921875 0.96875
vt 0.9375 0.96875
vt 0.9375 0.90625
vt 0.984375 0.90625
vt 0.921875 0.90625
vt 0.921875 0.921875
vt 0.984375 0.921875
vt 0.921875 0.90625
vt 0.921875 0.96875
vt 0.984375 0.96875
vt 0.984375 0.90625
vn 0 0 -1
vn 1 0 0
vn 0 0 1
vn -1 0 0
vn 0 -1 0
usemtl m_d8364299-315a-d598-abbc-40e686084cf3
f 28/64/16 31/63/16 29/62/16 26/61/16
f 27/68/17 28/67/17 26/66/17 25/65/17
f 32/72/18 27/71/18 25/70/18 30/69/18
f 31/76/19 32/75/19 30/74/19 29/73/19
f 31/80/20 28/79/20 27/78/20 32/77/20
o cube
v 0.25 1 0
v 0.25 1 0
v 0.25 0.6875 0
v 0.25 0.6875 0
v 0 1 0
v 0 1 0
v 0 0.6875 0
v 0 0.6875 0
vt 0.625 1
vt 0.6875 1
vt 0.6875 0.921875
vt 0.625 0.921875
vt 0.6875 1
vt 0.625 1
vt 0.625 0.921875
vt 0.6875 0.921875
vn 0 0 -1
vn 0 0 1
usemtl m_d8364299-315a-d598-abbc-40e686084cf3
f 36/84/21 39/83/21 37/82/21 34/81/21
f 40/88/22 35/87/22 33/86/22 38/85/22
o cube
v 0 1 1
v 0 1 0
v 0 0.6875 1
v 0 0.6875 0
v 0 1 0
v 0 1 1
v 0 0.6875 0
v 0 0.6875 1
vt 0.5 1
vt 0.25 1
vt 0.25 0.921875
vt 0.5 0.921875
vt 0.25 1
vt 0.5 1
vt 0.5 0.921875
vt 0.25 0.921875
vn 1 0 0
vn -1 0 0
usemtl m_d8364299-315a-d598-abbc-40e686084cf3
f 43/92/23 44/91/23 42/90/23 41/89/23
f 47/96/24 48/95/24 46/94/24 45/93/24
o cube
v 0.25 1 1
v 0.25 1 0
v 0.25 1 1
v 0.25 1 0
v 0 1 0
v 0 1 1
v 0 1 0
v 0 1 1
vt 0 0.9375
vt 0 1
vt 0.25 1
vt 0.25 0.9375
vt 0.25 0.9375
vt 0.25 1
vt 0 1
vt 0 0.9375
vn 0 1 0
vn 0 -1 0
usemtl m_d8364299-315a-d598-abbc-40e686084cf3
f 54/100/25 49/99/25 50/98/25 53/97/25
f 55/104/26 52/103/26 51/102/26 56/101/26
o cube
v 0.25 1 1
v 0.25 1 1
v 0.25 0.6875 1
v 0.25 0.6875 1
v 0 1 1
v 0 1 1
v 0 0.6875 1
v 0 0.6875 1
vt 0.75 1
vt 0.6875 1
vt 0.6875 0.921875
vt 0.75 0.921875
vt 0.6875 1
vt 0.75 1
vt 0.75 0.921875
vt 0.6875 0.921875
vn 0 0 -1
vn 0 0 1
usemtl m_d8364299-315a-d598-abbc-40e686084cf3
f 60/108/27 63/107/27 61/106/27 58/105/27
f 64/112/28 59/111/28 57/110/28 62/109/28
o cube
v 1 1 1
v 1 1 0
v 1 0.6875 1
v 1 0.6875 0
v 1 1 0
v 1 1 1
v 1 0.6875 0
v 1 0.6875 1
vt 0.25 0.921875
vt 0.5 0.921875
vt 0.5 0.84375
vt 0.25 0.84375
vt 0.5 0.921875
vt 0.25 0.921875
vt 0.25 0.84375
vt 0.5 0.84375
vn 1 0 0
vn -1 0 0
usemtl m_d8364299-315a-d598-abbc-40e686084cf3
f 67/116/29 68/115/29 66/114/29 65/113/29
f 71/120/30 72/119/30 70/118/30 69/117/30
o cube
v 1 1 1
v 1 1 0
v 1 1 1
v 1 1 0
v 0.75 1 0
v 0.75 1 1
v 0.75 1 0
v 0.75 1 1
vt 0 0.75
vt 0 0.8125
vt 0.25 0.8125
vt 0.25 0.75
vt 0.25 0.75
vt 0.25 0.8125
vt 0 0.8125
vt 0 0.75
vn 0 1 0
vn 0 -1 0
usemtl m_d8364299-315a-d598-abbc-40e686084cf3
f 78/124/31 73/123/31 74/122/31 77/121/31
f 79/128/32 76/127/32 75/126/32 80/125/32
o cube
v 1 1 1
v 1 1 1
v 1 0.6875 1
v 1 0.6875 1
v 0.75 1 1
v 0.75 1 1
v 0.75 0.6875 1
v 0.75 0.6875 1
vt 0.625 1
vt 0.5625 1
vt 0.5625 0.921875
vt 0.625 0.921875
vt 0.5625 1
vt 0.625 1
vt 0.625 0.921875
vt 0.5625 0.921875
vn 0 0 -1
vn 0 0 1
usemtl m_d8364299-315a-d598-abbc-40e686084cf3
f 84/132/33 87/131/33 85/130/33 82/129/33
f 88/136/34 83/135/34 81/134/34 86/133/34
o cube
v 1 1 0
v 1 1 0
v 1 0.6875 0
v 1 0.6875 0
v 0.75 1 0
v 0.75 1 0
v 0.75 0.6875 0
v 0.75 0.6875 0
vt 0.5 1
vt 0.5625 1
vt 0.5625 0.921875
vt 0.5 0.921875
vt 0.5625 1
vt 0.5 1
vt 0.5 0.921875
vt 0.5625 0.921875
vn 0 0 -1
vn 0 0 1
usemtl m_d8364299-315a-d598-abbc-40e686084cf3
f 92/140/35 95/139/35 93/138/35 90/137/35
f 96/144/36 91/143/36 89/142/36 94/141/36
o cube
v 0.25 0.6875 1
v 0.25 0.6875 0
v 0.25 0.625 1
v 0.25 0.625 0
v 0 0.6875 0
v 0 0.6875 1
v 0 0.625 0
v 0 0.625 1
vt 0.75 0.96875
vt 0.8125 0.96875
vt 0.8125 0.953125
vt 0.75 0.953125
vt 0.8125 0.96875
vt 0.875 0.96875
vt 0.875 0.953125
vt 0.8125 0.953125
vt 0.75 1
vt 1 1
vt 1 0.984375
vt 0.75 0.984375
vt 0 0.6875
vt 0 0.75
vt 0.25 0.75
vt 0.25 0.6875
vt 0.25 0.6875
vt 0.25 0.75
vt 0 0.75
vt 0 0.6875
vn 0 0 -1
vn 0 0 1
vn -1 0 0
vn 0 1 0
vn 0 -1 0
usemtl m_d8364299-315a-d598-abbc-40e686084cf3
f 100/148/37 103/147/37 101/146/37 98/145/37
f 104/152/38 99/151/38 97/150/38 102/149/38
f 103/156/39 104/155/39 102/154/39 101/153/39
f 102/160/40 97/159/40 98/158/40 101/157/40
f 103/164/41 100/163/41 99/162/41 104/161/41
o cube
v 1 0.6875 1
v 1 0.6875 0
v 1 0.625 1
v 1 0.625 0
v 0.75 0.6875 0
v 0.75 0.6875 1
v 0.75 0.625 0
v 0.75 0.625 1
vt 0.8125 0.953125
vt 0.875 0.953125
vt 0.875 0.9375
vt 0.8125 0.9375
vt 0.75 0.984375
vt 1 0.984375
vt 1 0.96875
vt 0.75 0.96875
vt 0.75 0.953125
vt 0.8125 0.953125
vt 0.8125 0.9375
vt 0.75 0.9375
vt 0 0.5
vt 0 0.5625
vt 0.25 0.5625
vt 0.25 0.5
vt 0.25 0.5
vt 0.25 0.5625
vt 0 0.5625
vt 0 0.5
vn 0 0 -1
vn 1 0 0
vn 0 0 1
vn 0 1 0
vn 0 -1 0
usemtl m_d8364299-315a-d598-abbc-40e686084cf3
f 108/168/42 111/167/42 109/166/42 106/165/42
f 107/172/43 108/171/43 106/170/43 105/169/43
f 112/176/44 107/175/44 105/174/44 110/173/44
f 110/180/45 105/179/45 106/178/45 109/177/45
f 111/184/46 108/183/46 107/182/46 112/181/46
o cube
v 0.28125 0.671875 0.96875
v 0.28125 0.671875 0.84375
v 0.28125 0.609375 0.96875
v 0.28125 0.609375 0.84375
v 0.15625 0.671875 0.84375
v 0.15625 0.671875 0.96875
v 0.15625 0.609375 0.84375
v 0.15625 0.609375 0.96875
vt 0.984375 0.96875
vt 0.984375 0.90625
vt 0.96875 0.90625
vt 0.96875 0.96875
vt 0.921875 0.96875
vt 0.984375 0.96875
vt 0.984375 0.953125
vt 0.921875 0.953125
vt 0.921875 0.90625
vt 0.921875 0.96875
vt 0.9375 0.96875
vt 0.9375 0.90625
vt 0.984375 0.90625
vt 0.921875 0.90625
vt 0.921875 0.921875
vt 0.984375 0.921875
vt 0.921875 0.90625
vt 0.921875 0.96875
vt 0.984375 0.96875
vt 0.984375 0.90625
vn 0 0 -1
vn 1 0 0
vn 0 0 1
vn -1 0 0
vn 0 -1 0
usemtl m_d8364299-315a-d598-abbc-40e686084cf3
f 116/188/47 119/187/47 117/186/47 114/185/47
f 115/192/48 116/191/48 114/190/48 113/189/48
f 120/196/49 115/195/49 113/194/49 118/193/49
f 119/200/50 120/199/50 118/198/50 117/197/50
f 119/204/51 116/203/51 115/202/51 120/201/51
o cube
v 0.25 0.625 0.9375
v 0.25 0.625 0.875
v 0.25 0.5 0.9375
v 0.25 0.5 0.875
v 0.1875 0.625 0.875
v 0.1875 0.625 0.9375
v 0.1875 0.5 0.875
v 0.1875 0.5 0.9375
vt 0.984375 0.96875
vt 1 0.96875
vt 1 0.9375
vt 0.984375 0.9375
vt 0.984375 0.96875
vt 1 0.96875
vt 1 0.9375
vt 0.984375 0.9375
vt 0.984375 0.96875
vt 1 0.96875
vt 1 0.9375
vt 0.984375 0.9375
vt 0.984375 0.96875
vt 1 0.96875
vt 1 0.9375
vt 0.984375 0.9375
vn 0 0 -1
vn 1 0 0
vn 0 0 1
vn -1 0 0
usemtl m_d8364299-315a-d598-abbc-40e686084cf3
f 124/208/52 127/207/52 125/206/52 122/205/52
f 123/212/53 124/211/53 122/210/53 121/209/53
f 128/216/54 123/215/54 121/214/54 126/213/54
f 127/220/55 128/219/55 126/218/55 125/217/55
o cube
v 0.421875 0.53125 0.96875
v 0.421875 0.53125 0.84375
v 0.421875 0.40625 0.96875
v 0.421875 0.40625 0.84375
v 0.359375 0.53125 0.84375
v 0.359375 0.53125 0.96875
v 0.359375 0.40625 0.84375
v 0.359375 0.40625 0.96875
vt 0.921875 0.96875
vt 0.9375 0.96875
vt 0.9375 0.90625
vt 0.921875 0.90625
vt 0.96875 0.96875
vt 0.984375 0.96875
vt 0.984375 0.90625
vt 0.96875 0.90625
vt 0.921875 0.96875
vt 0.984375 0.96875
vt 0.984375 0.90625
vt 0.921875 0.90625
vt 0.921875 0.953125
vt 0.921875 0.96875
vt 0.984375 0.96875
vt 0.984375 0.953125
vt 0.984375 0.921875
vt 0.984375 0.90625
vt 0.921875 0.90625
vt 0.921875 0.921875
vn 0 0 -1
vn 0 0 1
vn -1 0 0
vn 0 1 0
vn 0 -1 0
usemtl m_d8364299-315a-d598-abbc-40e686084cf3
f 132/224/56 135/223/56 133/222/56 130/221/56
f 136/228/57 131/227/57 129/226/57 134/225/57
f 135/232/58 136/231/58 134/230/58 133/229/58
f 134/236/59 129/235/59 130/234/59 133/233/59
f 135/240/60 132/239/60 131/238/60 136/237/60
o cube
v 0.375 0.5 0.9375
v 0.375 0.5 0.875
v 0.375 0.4375 0.9375
v 0.375 0.4375 0.875
v 0.1875 0.5 0.875
v 0.1875 0.5 0.9375
v 0.1875 0.4375 0.875
v 0.1875 0.4375 0.9375
vt 0.96875 0.890625
vt 0.921875 0.890625
vt 0.921875 0.90625
vt 0.96875 0.90625
vt 0.921875 0.90625
vt 0.96875 0.90625
vt 0.96875 0.890625
vt 0.921875 0.890625
vt 0.921875 0.90625
vt 0.9375 0.90625
vt 0.9375 0.890625
vt 0.921875 0.890625
vt 0.921875 0.90625
vt 0.96875 0.90625
vt 0.96875 0.890625
vt 0.921875 0.890625
vt 0.921875 0.90625
vt 0.96875 0.90625
vt 0.96875 0.890625
vt 0.921875 0.890625
vn 0 0 -1
vn 0 0 1
vn -1 0 0
vn 0 1 0
vn 0 -1 0
usemtl m_d8364299-315a-d598-abbc-40e686084cf3
f 140/244/61 143/243/61 141/242/61 138/241/61
f 144/248/62 139/247/62 137/246/62 142/245/62
f 143/252/63 144/251/63 142/250/63 141/249/63
f 142/256/64 137/255/64 138/254/64 141/253/64
f 143/260/65 140/259/65 139/258/65 144/257/65
o cube
v 0.5625 0.3125 0.1875
v 0.5625 0.3125 0.125
v 0.5625 0.25 0.1875
v 0.5625 0.25 0.125
v 0.5 0.3125 0.125
v 0.5 0.3125 0.1875
v 0.5 0.25 0.125
v 0.5 0.25 0.1875
vt 0.984375 0.96875
vt 1 0.96875
vt 1 0.953125
vt 0.984375 0.953125
vt 0.984375 0.96875
vt 1 0.96875
vt 1 0.953125
vt 0.984375 0.953125
vt 1 0.96875
vt 1 0.953125
vt 0.984375 0.953125
vt 0.984375 0.96875
vt 0.984375 0.953125
vt 0.984375 0.96875
vt 1 0.96875
vt 1 0.953125
vn 1 0 0
vn -1 0 0
vn 0 1 0
vn 0 -1 0
usemtl m_d8364299-315a-d598-abbc-40e686084cf3
f 147/264/66 148/263/66 146/262/66 145/261/66
f 151/268/67 152/267/67 150/266/67 149/265/67
f 150/272/68 145/271/68 146/270/68 149/269/68
f 151/276/69 148/275/69 147/274/69 152/273/69
o cube
v 0.5625 0.625 0.125
v 0.5625 0.625 0.0625
v 0.5625 0.25 0.125
v 0.5625 0.25 0.0625
v 0.5 0.625 0.0625
v 0.5 0.625 0.125
v 0.5 0.25 0.0625
v 0.5 0.25 0.125
vt 0.984375 0.9375
vt 1 0.9375
vt 1 0.84375
vt 0.984375 0.84375
vt 0.984375 0.9375
vt 1 0.9375
vt 1 0.84375
vt 0.984375 0.84375
vt 0.984375 0.9375
vt 1 0.9375
vt 1 0.84375
vt 0.984375 0.84375
vt 0.984375 0.9375
vt 1 0.9375
vt 1 0.84375
vt 0.984375 0.84375
vt 0.984375 0.84375
vt 0.984375 0.859375
vt 1 0.859375
vt 1 0.84375
vn 0 0 -1
vn 1 0 0
vn 0 0 1
vn -1 0 0
vn 0 -1 0
usemtl m_d8364299-315a-d598-abbc-40e686084cf3
f 156/280/70 159/279/70 157/278/70 154/277/70
f 155/284/71 156/283/71 154/282/71 153/281/71
f 160/288/72 155/287/72 153/286/72 158/285/72
f 159/292/73 160/291/73 158/290/73 157/289/73
f 159/296/74 156/295/74 155/294/74 160/293/74
o cube
v 0.75 0.4375 0.1875
v 0.75 0.4375 0.125
v 0.75 0.375 0.1875
v 0.75 0.375 0.125
v 0.6875 0.4375 0.125
v 0.6875 0.4375 0.1875
v 0.6875 0.375 0.125
v 0.6875 0.375 0.1875
vt 0.984375 0.96875
vt 1 0.96875
vt 1 0.953125
vt 0.984375 0.953125
vt 0.984375 0.96875
vt 1 0.96875
vt 1 0.953125
vt 0.984375 0.953125
vt 1 0.96875
vt 1 0.953125
vt 0.984375 0.953125
vt 0.984375 0.96875
vt 0.984375 0.953125
vt 0.984375 0.96875
vt 1 0.96875
vt 1 0.953125
vn 1 0 0
vn -1 0 0
vn 0 1 0
vn 0 -1 0
usemtl m_d8364299-315a-d598-abbc-40e686084cf3
f 163/300/75 164/299/75 162/298/75 161/297/75
f 167/304/76 168/303/76 166/302/76 165/301/76
f 166/308/77 161/307/77 162/306/77 165/305/77
f 167/312/78 164/311/78 163/310/78 168/309/78
o cube
v 0.75 0.625 0.125
v 0.75 0.625 0.0625
v 0.75 0.375 0.125
v 0.75 0.375 0.0625
v 0.6875 0.625 0.0625
v 0.6875 0.625 0.125
v 0.6875 0.375 0.0625
v 0.6875 0.375 0.125
vt 0.96875 0.90625
vt 0.984375 0.90625
vt 0.984375 0.84375
vt 0.96875 0.84375
vt 0.96875 0.90625
vt 0.984375 0.90625
vt 0.984375 0.84375
vt 0.96875 0.84375
vt 0.96875 0.90625
vt 0.984375 0.90625
vt 0.984375 0.84375
vt 0.96875 0.84375
vt 0.96875 0.90625
vt 0.984375 0.90625
vt 0.984375 0.84375
vt 0.96875 0.84375
vt 0.96875 0.84375
vt 0.96875 0.859375
vt 0.984375 0.859375
vt 0.984375 0.84375
vn 0 0 -1
vn 1 0 0
vn 0 0 1
vn -1 0 0
vn 0 -1 0
usemtl m_d8364299-315a-d598-abbc-40e686084cf3
f 172/316/79 175/315/79 173/314/79 170/313/79
f 171/320/80 172/319/80 170/318/80 169/317/80
f 176/324/81 171/323/81 169/322/81 174/321/81
f 175/328/82 176/327/82 174/326/82 173/325/82
f 175/332/83 172/331/83 171/330/83 176/329/83
o cube
v 0.875 0.625 1
v 0.875 0.625 0.8125
v 0.875 0.375 1
v 0.875 0.375 0.8125
v 0.375 0.625 0.8125
v 0.375 0.625 1
v 0.375 0.375 0.8125
v 0.375 0.375 1
vt 0.421875 0.5625
vt 0.46875 0.5625
vt 0.46875 0.5
vt 0.421875 0.5
vt 0.25 0.5625
vt 0.375 0.5625
vt 0.375 0.5
vt 0.25 0.5
vt 0.375 0.5625
vt 0.421875 0.5625
vt 0.421875 0.5
vt 0.375 0.5
vt 0.921875 0.84375
vt 0.921875 0.96875
vt 0.875 0.96875
vt 0.875 0.84375
vn 1 0 0
vn 0 0 1
vn -1 0 0
vn 0 -1 0
usemtl m_d8364299-315a-d598-abbc-40e686084cf3
f 179/336/84 180/335/84 178/334/84 177/333/84
f 184/340/85 179/339/85 177/338/85 182/337/85
f 183/344/86 184/343/86 182/342/86 181/341/86
f 183/348/87 180/347/87 179/346/87 184/345/87
o cube
v 1 0.625 0.6875
v 1 0.625 0.3125
v 1 0.3125 0.6875
v 1 0.3125 0.3125
v 0.9375 0.625 0.3125
v 0.9375 0.625 0.6875
v 0.9375 0.3125 0.3125
v 0.9375 0.3125 0.6875
vt 0.15625 0.90625
vt 0.171875 0.90625
vt 0.171875 0.828125
vt 0.15625 0.828125
vt 0.078125 0.90625
vt 0.171875 0.90625
vt 0.171875 0.828125
vt 0.078125 0.828125
vt 0.078125 0.90625
vt 0.09375 0.90625
vt 0.09375 0.828125
vt 0.078125 0.828125
vt 0.078125 0.828125
vt 0.078125 0.84375
vt 0.171875 0.84375
vt 0.171875 0.828125
vn 0 0 -1
vn 1 0 0
vn 0 0 1
vn 0 -1 0
usemtl m_d8364299-315a-d598-abbc-40e686084cf3
f 188/352/88 191/351/88 189/350/88 186/349/88
f 187/356/89 188/355/89 186/354/89 185/353/89
f 192/360/90 187/359/90 185/358/90 190/357/90
f 191/364/91 188/363/91 187/362/91 192/361/91
o cube
v 0.0625 0.625 0.6875
v 0.0625 0.625 0.3125
v 0.0625 0.3125 0.6875
v 0.0625 0.3125 0.3125
v 0 0.625 0.3125
v 0 0.625 0.6875
v 0 0.3125 0.3125
v 0 0.3125 0.6875
vt 0.078125 0.90625
vt 0.09375 0.90625
vt 0.09375 0.828125
vt 0.078125 0.828125
vt 0.15625 0.90625
vt 0.171875 0.90625
vt 0.171875 0.828125
vt 0.15625 0.828125
vt 0.078125 0.90625
vt 0.171875 0.90625
vt 0.171875 0.828125
vt 0.078125 0.828125
vt 0.171875 0.84375
vt 0.171875 0.828125
vt 0.078125 0.828125
vt 0.078125 0.84375
vn 0 0 -1
vn 0 0 1
vn -1 0 0
vn 0 -1 0
usemtl m_d8364299-315a-d598-abbc-40e686084cf3
f 196/368/92 199/367/92 197/366/92 194/365/92
f 200/372/93 195/371/93 193/370/93 198/369/93
f 199/376/94 200/375/94 198/374/94 197/373/94
f 199/380/95 196/379/95 195/378/95 200/377/95
o cube
v 0.875 0.0625 0.9375
v 0.875 0.0625 0.0625
v 0.875 0 0.9375
v 0.875 0 0.0625
v 0.625 0.0625 0.0625
v 0.625 0.0625 0.9375
v 0.625 0 0.0625
v 0.625 0 0.9375
vt 0.21875 0.484375
vt 0 0.484375
vt 0 0.5
vt 0.21875 0.5
vt 0 0.453125
vt 0.21875 0.453125
vt 0.21875 0.4375
vt 0 0.4375
vt 0 0.4375
vt 0 0.5
vt 0.21875 0.5
vt 0.21875 0.4375
vt 0.21875 0.4375
vt 0.21875 0.5
vt 0 0.5
vt 0 0.4375
vn 1 0 0
vn -1 0 0
vn 0 1 0
vn 0 -1 0
usemtl m_d8364299-315a-d598-abbc-40e686084cf3
f 203/384/96 204/383/96 202/382/96 201/381/96
f 207/388/97 208/387/97 206/386/97 205/385/97
f 206/392/98 201/391/98 202/390/98 205/389/98
f 207/396/99 204/395/99 203/394/99 208/393/99
o cube
v 0.375 0.0625 0.9375
v 0.375 0.0625 0.0625
v 0.375 0 0.9375
v 0.375 0 0.0625
v 0.125 0.0625 0.0625
v 0.125 0.0625 0.9375
v 0.125 0 0.0625
v 0.125 0 0.9375
vt 0.4375 0.484375
vt 0.21875 0.484375
vt 0.21875 0.5
vt 0.4375 0.5
vt 0.21875 0.453125
vt 0.4375 0.453125
vt 0.4375 0.4375
vt 0.21875 0.4375
vt 0.21875 0.4375
vt 0.21875 0.5
vt 0.4375 0.5
vt 0.4375 0.4375
vt 0.4375 0.4375
vt 0.4375 0.5
vt 0.21875 0.5
vt 0.21875 0.4375
vn 1 0 0
vn -1 0 0
vn 0 1 0
vn 0 -1 0
usemtl m_d8364299-315a-d598-abbc-40e686084cf3
f 211/400/100 212/399/100 210/398/100 209/397/100
f 215/404/101 216/403/101 214/402/101 213/401/101
f 214/408/102 209/407/102 210/406/102 213/405/102
f 215/412/103 212/411/103 211/410/103 216/409/103
o cube
v 0.9375 0.625 0.8125
v 0.9375 0.625 0.1875
v 0.9375 0.0625 0.8125
v 0.9375 0.0625 0.1875
v 0.0625 0.625 0.1875
v 0.0625 0.625 0.8125
v 0.0625 0.0625 0.1875
v 0.0625 0.0625 0.8125
vt 0.65625 0.78125
vt 0.875 0.78125
vt 0.875 0.640625
vt 0.65625 0.640625
vt 0.5 0.78125
vt 0.65625 0.78125
vt 0.65625 0.640625
vt 0.5 0.640625
vt 0.65625 0.921875
vt 0.875 0.921875
vt 0.875 0.78125
vt 0.65625 0.78125
vt 0.5 0.921875
vt 0.65625 0.921875
vt 0.65625 0.78125
vt 0.5 0.78125
vt 0.65625 0.421875
vt 0.65625 0.640625
vt 0.5 0.640625
vt 0.5 0.421875
vn 0 0 -1
vn 1 0 0
vn 0 0 1
vn -1 0 0
vn 0 -1 0
usemtl m_d8364299-315a-d598-abbc-40e686084cf3
f 220/416/104 223/415/104 221/414/104 218/413/104
f 219/420/105 220/419/105 218/418/105 217/417/105
f 224/424/106 219/423/106 217/422/106 222/421/106
f 223/428/107 224/427/107 222/426/107 221/425/107
f 223/432/108 220/431/108 219/430/108 224/429/108
o cube
v 0.9375 0.0625 0.0625
v 0.9375 0.0625 0
v 0.9375 0 0.0625
v 0.9375 0 0
v 0.0625 0.0625 0
v 0.0625 0.0625 0.0625
v 0.0625 0 0
v 0.0625 0 0.0625
vt 0 0.4375
vt 0.21875 0.4375
vt 0.21875 0.421875
vt 0 0.421875
vt 0.21875 0.421875
vt 0 0.421875
vt 0 0.4375
vt 0.21875 0.4375
vt 0.21875 0.421875
vt 0 0.421875
vt 0 0.4375
vt 0.21875 0.4375
vt 0.21875 0.421875
vt 0 0.421875
vt 0 0.4375
vt 0.21875 0.4375
vn 0 0 -1
vn 0 0 1
vn 0 1 0
vn 0 -1 0
usemtl m_d8364299-315a-d598-abbc-40e686084cf3
f 228/436/109 231/435/109 229/434/109 226/433/109
f 232/440/110 227/439/110 225/438/110 230/437/110
f 230/444/111 225/443/111 226/442/111 229/441/111
f 231/448/112 228/447/112 227/446/112 232/445/112
o cube
v 0.0625 0.625 0.0625
v 0.0625 0.625 0
v 0.0625 0 0.0625
v 0.0625 0 0
v 0 0.625 0
v 0 0.625 0.0625
v 0 0 0
v 0 0 0.0625
vt 0.921875 0.84375
vt 0.9375 0.84375
vt 0.9375 0.6875
vt 0.921875 0.6875
vt 0.921875 0.84375
vt 0.9375 0.84375
vt 0.9375 0.6875
vt 0.921875 0.6875
vt 0.921875 0.84375
vt 0.9375 0.84375
vt 0.9375 0.6875
vt 0.921875 0.6875
vt 0.921875 0.84375
vt 0.9375 0.84375
vt 0.9375 0.6875
vt 0.921875 0.6875
vt 0.921875 0.6875
vt 0.921875 0.703125
vt 0.9375 0.703125
vt 0.9375 0.6875
vn 0 0 -1
vn 1 0 0
vn 0 0 1
vn -1 0 0
vn 0 -1 0
usemtl m_d8364299-315a-d598-abbc-40e686084cf3
f 236/452/113 239/451/113 237/450/113 234/449/113
f 235/456/114 236/455/114 234/454/114 233/453/114
f 240/460/115 235/459/115 233/458/115 238/457/115
f 239/464/116 240/463/116 238/462/116 237/461/116
f 239/468/117 236/467/117 235/466/117 240/465/117
o cube
v 1 0.625 0.0625
v 1 0.625 0
v 1 0 0.0625
v 1 0 0
v 0.9375 0.625 0
v 0.9375 0.625 0.0625
v 0.9375 0 0
v 0.9375 0 0.0625
vt 0.90625 0.84375
vt 0.921875 0.84375
vt 0.921875 0.6875
vt 0.90625 0.6875
vt 0.90625 0.84375
vt 0.921875 0.84375
vt 0.921875 0.6875
vt 0.90625 0.6875
vt 0.90625 0.84375
vt 0.921875 0.84375
vt 0.921875 0.6875
vt 0.90625 0.6875
vt 0.90625 0.84375
vt 0.921875 0.84375
vt 0.921875 0.6875
vt 0.90625 0.6875
vt 0.90625 0.6875
vt 0.90625 0.703125
vt 0.921875 0.703125
vt 0.921875 0.6875
vn 0 0 -1
vn 1 0 0
vn 0 0 1
vn -1 0 0
vn 0 -1 0
usemtl m_d8364299-315a-d598-abbc-40e686084cf3
f 244/472/118 247/471/118 245/470/118 242/469/118
f 243/476/119 244/475/119 242/474/119 241/473/119
f 248/480/120 243/479/120 241/478/120 246/477/120
f 247/484/121 248/483/121 246/482/121 245/481/121
f 247/488/122 244/487/122 243/486/122 248/485/122
o cube
v 0.9375 0.0625 1
v 0.9375 0.0625 0.9375
v 0.9375 0 1
v 0.9375 0 0.9375
v 0.0625 0.0625 0.9375
v 0.0625 0.0625 1
v 0.0625 0 0.9375
v 0.0625 0 1
vt 0.4375 0.421875
vt 0.21875 0.421875
vt 0.21875 0.4375
vt 0.4375 0.4375
vt 0.21875 0.4375
vt 0.4375 0.4375
vt 0.4375 0.421875
vt 0.21875 0.421875
vt 0.21875 0.4375
vt 0.4375 0.4375
vt 0.4375 0.421875
vt 0.21875 0.421875
vt 0.21875 0.4375
vt 0.4375 0.4375
vt 0.4375 0.421875
vt 0.21875 0.421875
vn 0 0 -1
vn 0 0 1
vn 0 1 0
vn 0 -1 0
usemtl m_d8364299-315a-d598-abbc-40e686084cf3
f 252/492/123 255/491/123 253/490/123 250/489/123
f 256/496/124 251/495/124 249/494/124 254/493/124
f 254/500/125 249/499/125 250/498/125 253/497/125
f 255/504/126 252/503/126 251/502/126 256/501/126
o cube
v 0.0625 0.625 1
v 0.0625 0.625 0.9375
v 0.0625 0 1
v 0.0625 0 0.9375
v 0 0.625 0.9375
v 0 0.625 1
v 0 0 0.9375
v 0 0 1
vt 0.875 0.84375
vt 0.890625 0.84375
vt 0.890625 0.6875
vt 0.875 0.6875
vt 0.875 0.84375
vt 0.890625 0.84375
vt 0.890625 0.6875
vt 0.875 0.6875
vt 0.875 0.84375
vt 0.890625 0.84375
vt 0.890625 0.6875
vt 0.875 0.6875
vt 0.875 0.84375
vt 0.890625 0.84375
vt 0.890625 0.6875
vt 0.875 0.6875
vt 0.875 0.6875
vt 0.875 0.703125
vt 0.890625 0.703125
vt 0.890625 0.6875
vn 0 0 -1
vn 1 0 0
vn 0 0 1
vn -1 0 0
vn 0 -1 0
usemtl m_d8364299-315a-d598-abbc-40e686084cf3
f 260/508/127 263/507/127 261/506/127 258/505/127
f 259/512/128 260/511/128 258/510/128 257/509/128
f 264/516/129 259/515/129 257/514/129 262/513/129
f 263/520/130 264/519/130 262/518/130 261/517/130
f 263/524/131 260/523/131 259/522/131 264/521/131
o cube
v 0.75 1 1
v 0.75 1 0
v 0.75 0.625 1
v 0.75 0.625 0
v 0.25 1 0
v 0.25 1 1
v 0.25 0.625 0
v 0.25 0.625 1
vt 0.25 0.84375
vt 0.375 0.84375
vt 0.375 0.75
vt 0.25 0.75
vt 0.25 0.65625
vt 0.5 0.65625
vt 0.5 0.5625
vt 0.25 0.5625
vt 0.375 0.84375
vt 0.5 0.84375
vt 0.5 0.75
vt 0.375 0.75
vt 0.25 0.75
vt 0.5 0.75
vt 0.5 0.65625
vt 0.25 0.65625
vt 0 0.8125
vt 0 0.9375
vt 0.25 0.9375
vt 0.25 0.8125
vt 0.25 0.5625
vt 0.25 0.6875
vt 0 0.6875
vt 0 0.5625
vn 0 0 -1
vn 1 0 0
vn 0 0 1
vn -1 0 0
vn 0 1 0
vn 0 -1 0
usemtl m_d8364299-315a-d598-abbc-40e686084cf3
f 268/528/132 271/527/132 269/526/132 266/525/132
f 267/532/133 268/531/133 266/530/133 265/529/133
f 272/536/134 267/535/134 265/534/134 270/533/134
f 271/540/135 272/539/135 270/538/135 269/537/135
f 270/544/136 265/543/136 266/542/136 269/541/136
f 271/548/137 268/547/137 267/546/137 272/545/137
o cube
v 1 0.625 1
v 1 0.625 0.9375
v 1 0 1
v 1 0 0.9375
v 0.9375 0.625 0.9375
v 0.9375 0.625 1
v 0.9375 0 0.9375
v 0.9375 0 1
vt 0.890625 0.84375
vt 0.90625 0.84375
vt 0.90625 0.6875
vt 0.890625 0.6875
vt 0.890625 0.84375
vt 0.90625 0.84375
vt 0.90625 0.6875
vt 0.890625 0.6875
vt 0.890625 0.84375
vt 0.90625 0.84375
vt 0.90625 0.6875
vt 0.890625 0.6875
vt 0.890625 0.84375
vt 0.90625 0.84375
vt 0.90625 0.6875
vt 0.890625 0.6875
vt 0.890625 0.6875
vt 0.890625 0.703125
vt 0.90625 0.703125
vt 0.90625 0.6875
vn 0 0 -1
vn 1 0 0
vn 0 0 1
vn -1 0 0
vn 0 -1 0
usemtl m_d8364299-315a-d598-abbc-40e686084cf3
f 276/552/138 279/551/138 277/550/138 274/549/138
f 275/556/139 276/555/139 274/554/139 273/553/139
f 280/560/140 275/559/140 273/558/140 278/557/140
f 279/564/141 280/563/141 278/562/141 277/561/141
f 279/568/142 276/567/142 275/566/142 280/565/142